<svg xmlns="http://www.w3.org/2000/svg" version="1.1" xmlns:xlink="http://www.w3.org/1999/xlink" xmlns:svgjs="http://svgjs.dev/svgjs" width="1440" height="200" preserveAspectRatio="none" viewBox="0 0 1440 200">
    <g mask="url(&quot;#SvgjsMask1100&quot;)" fill="none">
        <path d="M1369.49 86.5 a53.53 53.53 0 1 0 107.06 0 a53.53 53.53 0 1 0 -107.06 0z" fill="rgba(213, 231, 233, 0.76)" class="triangle-float2"></path>
        <path d="M568.3549670488226 164.98141484709276L592.4049644463404 140.93141744957498 568.3549670488226 116.88142005205722 544.3049696513048 140.931417449575z" fill="rgba(213, 231, 233, 0.76)" class="triangle-float2"></path>
        <path d="M1062.9109619684677 196.65012379103723L1090.6874519226772 223.4735683433586 1117.5108964749984 195.69707838914925 1089.7344065207892 168.87363383682788z" fill="rgba(213, 231, 233, 0.76)" class="triangle-float2"></path>
        <path d="M121.23 52.76 a66.55 66.55 0 1 0 133.1 0 a66.55 66.55 0 1 0 -133.1 0z" fill="rgba(213, 231, 233, 0.76)" class="triangle-float2"></path>
        <path d="M1106.459,50.105C1119.687,49.747,1129.596,39.332,1135.988,27.745C1142.122,16.626,1144.861,3.187,1138.359,-7.721C1131.981,-18.42,1118.894,-22.507,1106.459,-21.792C1095.262,-21.148,1086.337,-13.861,1080.337,-4.386C1073.764,5.994,1068.717,18.341,1074.028,29.42C1079.969,41.813,1092.721,50.477,1106.459,50.105" fill="rgba(213, 231, 233, 0.76)" class="triangle-float1"></path>
        <path d="M955.2112831973615 147.19468122981834L986.2099597430241 176.15669591316092 995.1814950712876 140.17383307401855z" fill="rgba(213, 231, 233, 0.76)" class="triangle-float2"></path>
        <path d="M239.64429649514784 148.22255708457504L197.99231896024332 167.64519318640097 217.41495506206925 209.29717072130552 259.0669325969738 189.87453461947956z" fill="rgba(213, 231, 233, 0.76)" class="triangle-float1"></path>
        <path d="M546.149,201.138C559.853,200.667,570.563,191.044,577.765,179.376C585.452,166.921,591.611,151.773,584.52,138.97C577.278,125.895,561.096,122.2,546.149,122.294C531.402,122.387,516.188,126.799,508.603,139.446C500.833,152.402,502.675,168.783,510.529,181.688C518.067,194.074,531.659,201.636,546.149,201.138" fill="rgba(213, 231, 233, 0.76)" class="triangle-float3"></path>
        <path d="M183.643,47.896C188.666,47.617,193.06,44.958,195.752,40.708C198.678,36.089,200.549,30.269,197.803,25.541C195.066,20.827,189.089,19.615,183.643,19.856C178.668,20.077,174.239,22.546,171.503,26.707C168.422,31.393,166.165,37.331,168.953,42.197C171.751,47.081,178.023,48.208,183.643,47.896" fill="rgba(213, 231, 233, 0.76)" class="triangle-float2"></path>
        <path d="M467.09202199330815 160.4915874063534L441.30415656402414 201.7607988831006 482.57336804077136 227.54866431238457 508.3612334700553 186.2794528356374z" fill="rgba(213, 231, 233, 0.76)" class="triangle-float3"></path>
        <path d="M1183.1394911447178 179.3267737400415L1204.4782525347034 169.376345888349 1178.8832300621718 142.3434177292169z" fill="rgba(213, 231, 233, 0.76)" class="triangle-float2"></path>
        <path d="M843.24 159.88 a61.75 61.75 0 1 0 123.5 0 a61.75 61.75 0 1 0 -123.5 0z" fill="rgba(213, 231, 233, 0.76)" class="triangle-float3"></path>
        <path d="M709.438,214.325C724.008,213.901,737.957,208.59,746.154,196.537C755.58,182.677,761.167,164.824,753.093,150.135C744.801,135.049,726.647,129.267,709.438,129.735C693.103,130.179,677.993,138.316,669.709,152.401C661.306,166.688,659.876,184.835,668.827,198.786C677.216,211.861,693.91,214.777,709.438,214.325" fill="rgba(213, 231, 233, 0.76)" class="triangle-float1"></path>
        <path d="M49.02 79.17 a61.39 61.39 0 1 0 122.78 0 a61.39 61.39 0 1 0 -122.78 0z" fill="rgba(213, 231, 233, 0.76)" class="triangle-float2"></path>
        <path d="M501.6541762070213 220.90971361048793L521.5010418643416 174.15342819750376 474.7447564513574 154.3065625401835 454.89789079403715 201.06284795316768z" fill="rgba(213, 231, 233, 0.76)" class="triangle-float3"></path>
        <path d="M456.5341437709272 128.29324032095948L477.879805835568 129.41191906709355 468.8849929224487 96.83408659706534z" fill="rgba(213, 231, 233, 0.76)" class="triangle-float1"></path>
        <path d="M338.02 183.26 a55.51 55.51 0 1 0 111.02 0 a55.51 55.51 0 1 0 -111.02 0z" fill="rgba(213, 231, 233, 0.76)" class="triangle-float3"></path>
        <path d="M451.373,183.414C467.442,184.218,484.966,181.589,493.718,168.088C503.095,153.623,501.494,134.605,492.577,119.852C483.96,105.596,468.023,98.555,451.373,98.029C433.6,97.467,413.822,101.436,405.398,117.096C397.236,132.269,405.967,150.029,415.783,164.188C424.017,176.065,436.939,182.692,451.373,183.414" fill="rgba(213, 231, 233, 0.76)" class="triangle-float3"></path>
        <path d="M1165.1423345977314 144.6054492175776L1189.4150129935974 169.7885286271385 1198.3542479403943 140.54960859416315z" fill="rgba(213, 231, 233, 0.76)" class="triangle-float2"></path>
        <path d="M384.8453772642405 133.96155069741516L350.24096770434886 166.1690828490712 389.542935010757 178.93906612762493z" fill="rgba(213, 231, 233, 0.76)" class="triangle-float1"></path>
    </g>
    <defs>
        <mask id="SvgjsMask1100">
            <rect width="1440" height="200" fill="#ffffff"></rect>
        </mask>
        <style>
            @keyframes float1 {
                    0%{transform: translate(0, 0)}
                    50%{transform: translate(-10px, 0)}
                    100%{transform: translate(0, 0)}
                }

                .triangle-float1 {
                    animation: float1 5s infinite;
                }

                @keyframes float2 {
                    0%{transform: translate(0, 0)}
                    50%{transform: translate(-5px, -5px)}
                    100%{transform: translate(0, 0)}
                }

                .triangle-float2 {
                    animation: float2 4s infinite;
                }

                @keyframes float3 {
                    0%{transform: translate(0, 0)}
                    50%{transform: translate(0, -10px)}
                    100%{transform: translate(0, 0)}
                }

                .triangle-float3 {
                    animation: float3 6s infinite;
                }
        </style>
    </defs>
</svg>