<svg xmlns="http://www.w3.org/2000/svg" version="1.1" xmlns:xlink="http://www.w3.org/1999/xlink" xmlns:svgjs="http://svgjs.dev/svgjs" viewBox="0 0 800 800" opacity="0.38"><defs><linearGradient gradientTransform="rotate(270)" x1="50%" y1="0%" x2="50%" y2="100%" id="sssquiggly-grad"><stop stop-color="hsla(70, 98%, 78%, 1.00)" stop-opacity="1" offset="0%"></stop><stop stop-color="hsla(186, 31%, 87%, 1.00)" stop-opacity="1" offset="100%"></stop></linearGradient></defs><g stroke-width="4" stroke="url(#sssquiggly-grad)" fill="none" stroke-linecap="round" transform="matrix(1,0,0,1,-5,-1287.7674407958984)"><path d="M10,10C23.06818181818182,11.25,44.507575757575765,26,72.72727272727273,16C100.9469696969697,6,115.15151515151517,-42.166666666666664,145.45454545454547,-38C175.75757575757575,-33.833333333333336,187.87878787878788,35.791666666666664,218.1818181818182,36C248.4848484848485,36.208333333333336,260.6060606060606,-43.458333333333336,290.90909090909093,-37C321.21212121212125,-30.541666666666664,333.33333333333337,69.91666666666667,363.6363636363637,67C393.939393939394,64.08333333333333,406.06060606060606,-43.083333333333336,436.3636363636364,-51C466.6666666666667,-58.916666666666664,478.7878787878788,24.833333333333332,509.0909090909091,29C539.3939393939395,33.166666666666664,551.5151515151515,-33.5,581.8181818181819,-31C612.1212121212122,-28.5,624.2424242424242,36.416666666666664,654.5454545454546,41C684.848484848485,45.583333333333336,696.969696969697,-11.291666666666666,727.2727272727274,-9C757.5757575757577,-6.708333333333334,784.848484848485,39.29166666666667,800.0000000000001,52"></path><path d="M10,10C23.06818181818182,11.25,44.507575757575765,26,72.72727272727273,16C100.9469696969697,6,115.15151515151517,-42.166666666666664,145.45454545454547,-38C175.75757575757575,-33.833333333333336,187.87878787878788,35.791666666666664,218.1818181818182,36C248.4848484848485,36.208333333333336,260.6060606060606,-43.458333333333336,290.90909090909093,-37C321.21212121212125,-30.541666666666664,333.33333333333337,69.91666666666667,363.6363636363637,67C393.939393939394,64.08333333333333,406.06060606060606,-43.083333333333336,436.3636363636364,-51C466.6666666666667,-58.916666666666664,478.7878787878788,24.833333333333332,509.0909090909091,29C539.3939393939395,33.166666666666664,551.5151515151515,-33.5,581.8181818181819,-31C612.1212121212122,-28.5,624.2424242424242,36.416666666666664,654.5454545454546,41C684.848484848485,45.583333333333336,696.969696969697,-11.291666666666666,727.2727272727274,-9C757.5757575757577,-6.708333333333334,784.848484848485,39.29166666666667,800.0000000000001,52" transform="matrix(1,0,0,1,0,3360)"></path><path d="M10,10C23.06818181818182,11.25,44.507575757575765,26,72.72727272727273,16C100.9469696969697,6,115.15151515151517,-42.166666666666664,145.45454545454547,-38C175.75757575757575,-33.833333333333336,187.87878787878788,35.791666666666664,218.1818181818182,36C248.4848484848485,36.208333333333336,260.6060606060606,-43.458333333333336,290.90909090909093,-37C321.21212121212125,-30.541666666666664,333.33333333333337,69.91666666666667,363.6363636363637,67C393.939393939394,64.08333333333333,406.06060606060606,-43.083333333333336,436.3636363636364,-51C466.6666666666667,-58.916666666666664,478.7878787878788,24.833333333333332,509.0909090909091,29C539.3939393939395,33.166666666666664,551.5151515151515,-33.5,581.8181818181819,-31C612.1212121212122,-28.5,624.2424242424242,36.416666666666664,654.5454545454546,41C684.848484848485,45.583333333333336,696.969696969697,-11.291666666666666,727.2727272727274,-9C757.5757575757577,-6.708333333333334,784.848484848485,39.29166666666667,800.0000000000001,52" transform="matrix(1,0,0,1,0,3276)"></path><path d="M10,10C23.06818181818182,11.25,44.507575757575765,26,72.72727272727273,16C100.9469696969697,6,115.15151515151517,-42.166666666666664,145.45454545454547,-38C175.75757575757575,-33.833333333333336,187.87878787878788,35.791666666666664,218.1818181818182,36C248.4848484848485,36.208333333333336,260.6060606060606,-43.458333333333336,290.90909090909093,-37C321.21212121212125,-30.541666666666664,333.33333333333337,69.91666666666667,363.6363636363637,67C393.939393939394,64.08333333333333,406.06060606060606,-43.083333333333336,436.3636363636364,-51C466.6666666666667,-58.916666666666664,478.7878787878788,24.833333333333332,509.0909090909091,29C539.3939393939395,33.166666666666664,551.5151515151515,-33.5,581.8181818181819,-31C612.1212121212122,-28.5,624.2424242424242,36.416666666666664,654.5454545454546,41C684.848484848485,45.583333333333336,696.969696969697,-11.291666666666666,727.2727272727274,-9C757.5757575757577,-6.708333333333334,784.848484848485,39.29166666666667,800.0000000000001,52" transform="matrix(1,0,0,1,0,3192)"></path><path d="M10,10C23.06818181818182,11.25,44.507575757575765,26,72.72727272727273,16C100.9469696969697,6,115.15151515151517,-42.166666666666664,145.45454545454547,-38C175.75757575757575,-33.833333333333336,187.87878787878788,35.791666666666664,218.1818181818182,36C248.4848484848485,36.208333333333336,260.6060606060606,-43.458333333333336,290.90909090909093,-37C321.21212121212125,-30.541666666666664,333.33333333333337,69.91666666666667,363.6363636363637,67C393.939393939394,64.08333333333333,406.06060606060606,-43.083333333333336,436.3636363636364,-51C466.6666666666667,-58.916666666666664,478.7878787878788,24.833333333333332,509.0909090909091,29C539.3939393939395,33.166666666666664,551.5151515151515,-33.5,581.8181818181819,-31C612.1212121212122,-28.5,624.2424242424242,36.416666666666664,654.5454545454546,41C684.848484848485,45.583333333333336,696.969696969697,-11.291666666666666,727.2727272727274,-9C757.5757575757577,-6.708333333333334,784.848484848485,39.29166666666667,800.0000000000001,52" transform="matrix(1,0,0,1,0,3108)"></path><path d="M10,10C23.06818181818182,11.25,44.507575757575765,26,72.72727272727273,16C100.9469696969697,6,115.15151515151517,-42.166666666666664,145.45454545454547,-38C175.75757575757575,-33.833333333333336,187.87878787878788,35.791666666666664,218.1818181818182,36C248.4848484848485,36.208333333333336,260.6060606060606,-43.458333333333336,290.90909090909093,-37C321.21212121212125,-30.541666666666664,333.33333333333337,69.91666666666667,363.6363636363637,67C393.939393939394,64.08333333333333,406.06060606060606,-43.083333333333336,436.3636363636364,-51C466.6666666666667,-58.916666666666664,478.7878787878788,24.833333333333332,509.0909090909091,29C539.3939393939395,33.166666666666664,551.5151515151515,-33.5,581.8181818181819,-31C612.1212121212122,-28.5,624.2424242424242,36.416666666666664,654.5454545454546,41C684.848484848485,45.583333333333336,696.969696969697,-11.291666666666666,727.2727272727274,-9C757.5757575757577,-6.708333333333334,784.848484848485,39.29166666666667,800.0000000000001,52" transform="matrix(1,0,0,1,0,3024)"></path><path d="M10,10C23.06818181818182,11.25,44.507575757575765,26,72.72727272727273,16C100.9469696969697,6,115.15151515151517,-42.166666666666664,145.45454545454547,-38C175.75757575757575,-33.833333333333336,187.87878787878788,35.791666666666664,218.1818181818182,36C248.4848484848485,36.208333333333336,260.6060606060606,-43.458333333333336,290.90909090909093,-37C321.21212121212125,-30.541666666666664,333.33333333333337,69.91666666666667,363.6363636363637,67C393.939393939394,64.08333333333333,406.06060606060606,-43.083333333333336,436.3636363636364,-51C466.6666666666667,-58.916666666666664,478.7878787878788,24.833333333333332,509.0909090909091,29C539.3939393939395,33.166666666666664,551.5151515151515,-33.5,581.8181818181819,-31C612.1212121212122,-28.5,624.2424242424242,36.416666666666664,654.5454545454546,41C684.848484848485,45.583333333333336,696.969696969697,-11.291666666666666,727.2727272727274,-9C757.5757575757577,-6.708333333333334,784.848484848485,39.29166666666667,800.0000000000001,52" transform="matrix(1,0,0,1,0,2940)"></path><path d="M10,10C23.06818181818182,11.25,44.507575757575765,26,72.72727272727273,16C100.9469696969697,6,115.15151515151517,-42.166666666666664,145.45454545454547,-38C175.75757575757575,-33.833333333333336,187.87878787878788,35.791666666666664,218.1818181818182,36C248.4848484848485,36.208333333333336,260.6060606060606,-43.458333333333336,290.90909090909093,-37C321.21212121212125,-30.541666666666664,333.33333333333337,69.91666666666667,363.6363636363637,67C393.939393939394,64.08333333333333,406.06060606060606,-43.083333333333336,436.3636363636364,-51C466.6666666666667,-58.916666666666664,478.7878787878788,24.833333333333332,509.0909090909091,29C539.3939393939395,33.166666666666664,551.5151515151515,-33.5,581.8181818181819,-31C612.1212121212122,-28.5,624.2424242424242,36.416666666666664,654.5454545454546,41C684.848484848485,45.583333333333336,696.969696969697,-11.291666666666666,727.2727272727274,-9C757.5757575757577,-6.708333333333334,784.848484848485,39.29166666666667,800.0000000000001,52" transform="matrix(1,0,0,1,0,2856)"></path><path d="M10,10C23.06818181818182,11.25,44.507575757575765,26,72.72727272727273,16C100.9469696969697,6,115.15151515151517,-42.166666666666664,145.45454545454547,-38C175.75757575757575,-33.833333333333336,187.87878787878788,35.791666666666664,218.1818181818182,36C248.4848484848485,36.208333333333336,260.6060606060606,-43.458333333333336,290.90909090909093,-37C321.21212121212125,-30.541666666666664,333.33333333333337,69.91666666666667,363.6363636363637,67C393.939393939394,64.08333333333333,406.06060606060606,-43.083333333333336,436.3636363636364,-51C466.6666666666667,-58.916666666666664,478.7878787878788,24.833333333333332,509.0909090909091,29C539.3939393939395,33.166666666666664,551.5151515151515,-33.5,581.8181818181819,-31C612.1212121212122,-28.5,624.2424242424242,36.416666666666664,654.5454545454546,41C684.848484848485,45.583333333333336,696.969696969697,-11.291666666666666,727.2727272727274,-9C757.5757575757577,-6.708333333333334,784.848484848485,39.29166666666667,800.0000000000001,52" transform="matrix(1,0,0,1,0,2772)"></path><path d="M10,10C23.06818181818182,11.25,44.507575757575765,26,72.72727272727273,16C100.9469696969697,6,115.15151515151517,-42.166666666666664,145.45454545454547,-38C175.75757575757575,-33.833333333333336,187.87878787878788,35.791666666666664,218.1818181818182,36C248.4848484848485,36.208333333333336,260.6060606060606,-43.458333333333336,290.90909090909093,-37C321.21212121212125,-30.541666666666664,333.33333333333337,69.91666666666667,363.6363636363637,67C393.939393939394,64.08333333333333,406.06060606060606,-43.083333333333336,436.3636363636364,-51C466.6666666666667,-58.916666666666664,478.7878787878788,24.833333333333332,509.0909090909091,29C539.3939393939395,33.166666666666664,551.5151515151515,-33.5,581.8181818181819,-31C612.1212121212122,-28.5,624.2424242424242,36.416666666666664,654.5454545454546,41C684.848484848485,45.583333333333336,696.969696969697,-11.291666666666666,727.2727272727274,-9C757.5757575757577,-6.708333333333334,784.848484848485,39.29166666666667,800.0000000000001,52" transform="matrix(1,0,0,1,0,2688)"></path><path d="M10,10C23.06818181818182,11.25,44.507575757575765,26,72.72727272727273,16C100.9469696969697,6,115.15151515151517,-42.166666666666664,145.45454545454547,-38C175.75757575757575,-33.833333333333336,187.87878787878788,35.791666666666664,218.1818181818182,36C248.4848484848485,36.208333333333336,260.6060606060606,-43.458333333333336,290.90909090909093,-37C321.21212121212125,-30.541666666666664,333.33333333333337,69.91666666666667,363.6363636363637,67C393.939393939394,64.08333333333333,406.06060606060606,-43.083333333333336,436.3636363636364,-51C466.6666666666667,-58.916666666666664,478.7878787878788,24.833333333333332,509.0909090909091,29C539.3939393939395,33.166666666666664,551.5151515151515,-33.5,581.8181818181819,-31C612.1212121212122,-28.5,624.2424242424242,36.416666666666664,654.5454545454546,41C684.848484848485,45.583333333333336,696.969696969697,-11.291666666666666,727.2727272727274,-9C757.5757575757577,-6.708333333333334,784.848484848485,39.29166666666667,800.0000000000001,52" transform="matrix(1,0,0,1,0,2604)"></path><path d="M10,10C23.06818181818182,11.25,44.507575757575765,26,72.72727272727273,16C100.9469696969697,6,115.15151515151517,-42.166666666666664,145.45454545454547,-38C175.75757575757575,-33.833333333333336,187.87878787878788,35.791666666666664,218.1818181818182,36C248.4848484848485,36.208333333333336,260.6060606060606,-43.458333333333336,290.90909090909093,-37C321.21212121212125,-30.541666666666664,333.33333333333337,69.91666666666667,363.6363636363637,67C393.939393939394,64.08333333333333,406.06060606060606,-43.083333333333336,436.3636363636364,-51C466.6666666666667,-58.916666666666664,478.7878787878788,24.833333333333332,509.0909090909091,29C539.3939393939395,33.166666666666664,551.5151515151515,-33.5,581.8181818181819,-31C612.1212121212122,-28.5,624.2424242424242,36.416666666666664,654.5454545454546,41C684.848484848485,45.583333333333336,696.969696969697,-11.291666666666666,727.2727272727274,-9C757.5757575757577,-6.708333333333334,784.848484848485,39.29166666666667,800.0000000000001,52" transform="matrix(1,0,0,1,0,2520)"></path><path d="M10,10C23.06818181818182,11.25,44.507575757575765,26,72.72727272727273,16C100.9469696969697,6,115.15151515151517,-42.166666666666664,145.45454545454547,-38C175.75757575757575,-33.833333333333336,187.87878787878788,35.791666666666664,218.1818181818182,36C248.4848484848485,36.208333333333336,260.6060606060606,-43.458333333333336,290.90909090909093,-37C321.21212121212125,-30.541666666666664,333.33333333333337,69.91666666666667,363.6363636363637,67C393.939393939394,64.08333333333333,406.06060606060606,-43.083333333333336,436.3636363636364,-51C466.6666666666667,-58.916666666666664,478.7878787878788,24.833333333333332,509.0909090909091,29C539.3939393939395,33.166666666666664,551.5151515151515,-33.5,581.8181818181819,-31C612.1212121212122,-28.5,624.2424242424242,36.416666666666664,654.5454545454546,41C684.848484848485,45.583333333333336,696.969696969697,-11.291666666666666,727.2727272727274,-9C757.5757575757577,-6.708333333333334,784.848484848485,39.29166666666667,800.0000000000001,52" transform="matrix(1,0,0,1,0,2436)"></path><path d="M10,10C23.06818181818182,11.25,44.507575757575765,26,72.72727272727273,16C100.9469696969697,6,115.15151515151517,-42.166666666666664,145.45454545454547,-38C175.75757575757575,-33.833333333333336,187.87878787878788,35.791666666666664,218.1818181818182,36C248.4848484848485,36.208333333333336,260.6060606060606,-43.458333333333336,290.90909090909093,-37C321.21212121212125,-30.541666666666664,333.33333333333337,69.91666666666667,363.6363636363637,67C393.939393939394,64.08333333333333,406.06060606060606,-43.083333333333336,436.3636363636364,-51C466.6666666666667,-58.916666666666664,478.7878787878788,24.833333333333332,509.0909090909091,29C539.3939393939395,33.166666666666664,551.5151515151515,-33.5,581.8181818181819,-31C612.1212121212122,-28.5,624.2424242424242,36.416666666666664,654.5454545454546,41C684.848484848485,45.583333333333336,696.969696969697,-11.291666666666666,727.2727272727274,-9C757.5757575757577,-6.708333333333334,784.848484848485,39.29166666666667,800.0000000000001,52" transform="matrix(1,0,0,1,0,2352)"></path><path d="M10,10C23.06818181818182,11.25,44.507575757575765,26,72.72727272727273,16C100.9469696969697,6,115.15151515151517,-42.166666666666664,145.45454545454547,-38C175.75757575757575,-33.833333333333336,187.87878787878788,35.791666666666664,218.1818181818182,36C248.4848484848485,36.208333333333336,260.6060606060606,-43.458333333333336,290.90909090909093,-37C321.21212121212125,-30.541666666666664,333.33333333333337,69.91666666666667,363.6363636363637,67C393.939393939394,64.08333333333333,406.06060606060606,-43.083333333333336,436.3636363636364,-51C466.6666666666667,-58.916666666666664,478.7878787878788,24.833333333333332,509.0909090909091,29C539.3939393939395,33.166666666666664,551.5151515151515,-33.5,581.8181818181819,-31C612.1212121212122,-28.5,624.2424242424242,36.416666666666664,654.5454545454546,41C684.848484848485,45.583333333333336,696.969696969697,-11.291666666666666,727.2727272727274,-9C757.5757575757577,-6.708333333333334,784.848484848485,39.29166666666667,800.0000000000001,52" transform="matrix(1,0,0,1,0,2268)"></path><path d="M10,10C23.06818181818182,11.25,44.507575757575765,26,72.72727272727273,16C100.9469696969697,6,115.15151515151517,-42.166666666666664,145.45454545454547,-38C175.75757575757575,-33.833333333333336,187.87878787878788,35.791666666666664,218.1818181818182,36C248.4848484848485,36.208333333333336,260.6060606060606,-43.458333333333336,290.90909090909093,-37C321.21212121212125,-30.541666666666664,333.33333333333337,69.91666666666667,363.6363636363637,67C393.939393939394,64.08333333333333,406.06060606060606,-43.083333333333336,436.3636363636364,-51C466.6666666666667,-58.916666666666664,478.7878787878788,24.833333333333332,509.0909090909091,29C539.3939393939395,33.166666666666664,551.5151515151515,-33.5,581.8181818181819,-31C612.1212121212122,-28.5,624.2424242424242,36.416666666666664,654.5454545454546,41C684.848484848485,45.583333333333336,696.969696969697,-11.291666666666666,727.2727272727274,-9C757.5757575757577,-6.708333333333334,784.848484848485,39.29166666666667,800.0000000000001,52" transform="matrix(1,0,0,1,0,2184)"></path><path d="M10,10C23.06818181818182,11.25,44.507575757575765,26,72.72727272727273,16C100.9469696969697,6,115.15151515151517,-42.166666666666664,145.45454545454547,-38C175.75757575757575,-33.833333333333336,187.87878787878788,35.791666666666664,218.1818181818182,36C248.4848484848485,36.208333333333336,260.6060606060606,-43.458333333333336,290.90909090909093,-37C321.21212121212125,-30.541666666666664,333.33333333333337,69.91666666666667,363.6363636363637,67C393.939393939394,64.08333333333333,406.06060606060606,-43.083333333333336,436.3636363636364,-51C466.6666666666667,-58.916666666666664,478.7878787878788,24.833333333333332,509.0909090909091,29C539.3939393939395,33.166666666666664,551.5151515151515,-33.5,581.8181818181819,-31C612.1212121212122,-28.5,624.2424242424242,36.416666666666664,654.5454545454546,41C684.848484848485,45.583333333333336,696.969696969697,-11.291666666666666,727.2727272727274,-9C757.5757575757577,-6.708333333333334,784.848484848485,39.29166666666667,800.0000000000001,52" transform="matrix(1,0,0,1,0,2100)"></path><path d="M10,10C23.06818181818182,11.25,44.507575757575765,26,72.72727272727273,16C100.9469696969697,6,115.15151515151517,-42.166666666666664,145.45454545454547,-38C175.75757575757575,-33.833333333333336,187.87878787878788,35.791666666666664,218.1818181818182,36C248.4848484848485,36.208333333333336,260.6060606060606,-43.458333333333336,290.90909090909093,-37C321.21212121212125,-30.541666666666664,333.33333333333337,69.91666666666667,363.6363636363637,67C393.939393939394,64.08333333333333,406.06060606060606,-43.083333333333336,436.3636363636364,-51C466.6666666666667,-58.916666666666664,478.7878787878788,24.833333333333332,509.0909090909091,29C539.3939393939395,33.166666666666664,551.5151515151515,-33.5,581.8181818181819,-31C612.1212121212122,-28.5,624.2424242424242,36.416666666666664,654.5454545454546,41C684.848484848485,45.583333333333336,696.969696969697,-11.291666666666666,727.2727272727274,-9C757.5757575757577,-6.708333333333334,784.848484848485,39.29166666666667,800.0000000000001,52" transform="matrix(1,0,0,1,0,2016)"></path><path d="M10,10C23.06818181818182,11.25,44.507575757575765,26,72.72727272727273,16C100.9469696969697,6,115.15151515151517,-42.166666666666664,145.45454545454547,-38C175.75757575757575,-33.833333333333336,187.87878787878788,35.791666666666664,218.1818181818182,36C248.4848484848485,36.208333333333336,260.6060606060606,-43.458333333333336,290.90909090909093,-37C321.21212121212125,-30.541666666666664,333.33333333333337,69.91666666666667,363.6363636363637,67C393.939393939394,64.08333333333333,406.06060606060606,-43.083333333333336,436.3636363636364,-51C466.6666666666667,-58.916666666666664,478.7878787878788,24.833333333333332,509.0909090909091,29C539.3939393939395,33.166666666666664,551.5151515151515,-33.5,581.8181818181819,-31C612.1212121212122,-28.5,624.2424242424242,36.416666666666664,654.5454545454546,41C684.848484848485,45.583333333333336,696.969696969697,-11.291666666666666,727.2727272727274,-9C757.5757575757577,-6.708333333333334,784.848484848485,39.29166666666667,800.0000000000001,52" transform="matrix(1,0,0,1,0,1932)"></path><path d="M10,10C23.06818181818182,11.25,44.507575757575765,26,72.72727272727273,16C100.9469696969697,6,115.15151515151517,-42.166666666666664,145.45454545454547,-38C175.75757575757575,-33.833333333333336,187.87878787878788,35.791666666666664,218.1818181818182,36C248.4848484848485,36.208333333333336,260.6060606060606,-43.458333333333336,290.90909090909093,-37C321.21212121212125,-30.541666666666664,333.33333333333337,69.91666666666667,363.6363636363637,67C393.939393939394,64.08333333333333,406.06060606060606,-43.083333333333336,436.3636363636364,-51C466.6666666666667,-58.916666666666664,478.7878787878788,24.833333333333332,509.0909090909091,29C539.3939393939395,33.166666666666664,551.5151515151515,-33.5,581.8181818181819,-31C612.1212121212122,-28.5,624.2424242424242,36.416666666666664,654.5454545454546,41C684.848484848485,45.583333333333336,696.969696969697,-11.291666666666666,727.2727272727274,-9C757.5757575757577,-6.708333333333334,784.848484848485,39.29166666666667,800.0000000000001,52" transform="matrix(1,0,0,1,0,1848)"></path><path d="M10,10C23.06818181818182,11.25,44.507575757575765,26,72.72727272727273,16C100.9469696969697,6,115.15151515151517,-42.166666666666664,145.45454545454547,-38C175.75757575757575,-33.833333333333336,187.87878787878788,35.791666666666664,218.1818181818182,36C248.4848484848485,36.208333333333336,260.6060606060606,-43.458333333333336,290.90909090909093,-37C321.21212121212125,-30.541666666666664,333.33333333333337,69.91666666666667,363.6363636363637,67C393.939393939394,64.08333333333333,406.06060606060606,-43.083333333333336,436.3636363636364,-51C466.6666666666667,-58.916666666666664,478.7878787878788,24.833333333333332,509.0909090909091,29C539.3939393939395,33.166666666666664,551.5151515151515,-33.5,581.8181818181819,-31C612.1212121212122,-28.5,624.2424242424242,36.416666666666664,654.5454545454546,41C684.848484848485,45.583333333333336,696.969696969697,-11.291666666666666,727.2727272727274,-9C757.5757575757577,-6.708333333333334,784.848484848485,39.29166666666667,800.0000000000001,52" transform="matrix(1,0,0,1,0,1764)"></path><path d="M10,10C23.06818181818182,11.25,44.507575757575765,26,72.72727272727273,16C100.9469696969697,6,115.15151515151517,-42.166666666666664,145.45454545454547,-38C175.75757575757575,-33.833333333333336,187.87878787878788,35.791666666666664,218.1818181818182,36C248.4848484848485,36.208333333333336,260.6060606060606,-43.458333333333336,290.90909090909093,-37C321.21212121212125,-30.541666666666664,333.33333333333337,69.91666666666667,363.6363636363637,67C393.939393939394,64.08333333333333,406.06060606060606,-43.083333333333336,436.3636363636364,-51C466.6666666666667,-58.916666666666664,478.7878787878788,24.833333333333332,509.0909090909091,29C539.3939393939395,33.166666666666664,551.5151515151515,-33.5,581.8181818181819,-31C612.1212121212122,-28.5,624.2424242424242,36.416666666666664,654.5454545454546,41C684.848484848485,45.583333333333336,696.969696969697,-11.291666666666666,727.2727272727274,-9C757.5757575757577,-6.708333333333334,784.848484848485,39.29166666666667,800.0000000000001,52" transform="matrix(1,0,0,1,0,1680)"></path><path d="M10,10C23.06818181818182,11.25,44.507575757575765,26,72.72727272727273,16C100.9469696969697,6,115.15151515151517,-42.166666666666664,145.45454545454547,-38C175.75757575757575,-33.833333333333336,187.87878787878788,35.791666666666664,218.1818181818182,36C248.4848484848485,36.208333333333336,260.6060606060606,-43.458333333333336,290.90909090909093,-37C321.21212121212125,-30.541666666666664,333.33333333333337,69.91666666666667,363.6363636363637,67C393.939393939394,64.08333333333333,406.06060606060606,-43.083333333333336,436.3636363636364,-51C466.6666666666667,-58.916666666666664,478.7878787878788,24.833333333333332,509.0909090909091,29C539.3939393939395,33.166666666666664,551.5151515151515,-33.5,581.8181818181819,-31C612.1212121212122,-28.5,624.2424242424242,36.416666666666664,654.5454545454546,41C684.848484848485,45.583333333333336,696.969696969697,-11.291666666666666,727.2727272727274,-9C757.5757575757577,-6.708333333333334,784.848484848485,39.29166666666667,800.0000000000001,52" transform="matrix(1,0,0,1,0,1596)"></path><path d="M10,10C23.06818181818182,11.25,44.507575757575765,26,72.72727272727273,16C100.9469696969697,6,115.15151515151517,-42.166666666666664,145.45454545454547,-38C175.75757575757575,-33.833333333333336,187.87878787878788,35.791666666666664,218.1818181818182,36C248.4848484848485,36.208333333333336,260.6060606060606,-43.458333333333336,290.90909090909093,-37C321.21212121212125,-30.541666666666664,333.33333333333337,69.91666666666667,363.6363636363637,67C393.939393939394,64.08333333333333,406.06060606060606,-43.083333333333336,436.3636363636364,-51C466.6666666666667,-58.916666666666664,478.7878787878788,24.833333333333332,509.0909090909091,29C539.3939393939395,33.166666666666664,551.5151515151515,-33.5,581.8181818181819,-31C612.1212121212122,-28.5,624.2424242424242,36.416666666666664,654.5454545454546,41C684.848484848485,45.583333333333336,696.969696969697,-11.291666666666666,727.2727272727274,-9C757.5757575757577,-6.708333333333334,784.848484848485,39.29166666666667,800.0000000000001,52" transform="matrix(1,0,0,1,0,1512)"></path><path d="M10,10C23.06818181818182,11.25,44.507575757575765,26,72.72727272727273,16C100.9469696969697,6,115.15151515151517,-42.166666666666664,145.45454545454547,-38C175.75757575757575,-33.833333333333336,187.87878787878788,35.791666666666664,218.1818181818182,36C248.4848484848485,36.208333333333336,260.6060606060606,-43.458333333333336,290.90909090909093,-37C321.21212121212125,-30.541666666666664,333.33333333333337,69.91666666666667,363.6363636363637,67C393.939393939394,64.08333333333333,406.06060606060606,-43.083333333333336,436.3636363636364,-51C466.6666666666667,-58.916666666666664,478.7878787878788,24.833333333333332,509.0909090909091,29C539.3939393939395,33.166666666666664,551.5151515151515,-33.5,581.8181818181819,-31C612.1212121212122,-28.5,624.2424242424242,36.416666666666664,654.5454545454546,41C684.848484848485,45.583333333333336,696.969696969697,-11.291666666666666,727.2727272727274,-9C757.5757575757577,-6.708333333333334,784.848484848485,39.29166666666667,800.0000000000001,52" transform="matrix(1,0,0,1,0,1428)"></path><path d="M10,10C23.06818181818182,11.25,44.507575757575765,26,72.72727272727273,16C100.9469696969697,6,115.15151515151517,-42.166666666666664,145.45454545454547,-38C175.75757575757575,-33.833333333333336,187.87878787878788,35.791666666666664,218.1818181818182,36C248.4848484848485,36.208333333333336,260.6060606060606,-43.458333333333336,290.90909090909093,-37C321.21212121212125,-30.541666666666664,333.33333333333337,69.91666666666667,363.6363636363637,67C393.939393939394,64.08333333333333,406.06060606060606,-43.083333333333336,436.3636363636364,-51C466.6666666666667,-58.916666666666664,478.7878787878788,24.833333333333332,509.0909090909091,29C539.3939393939395,33.166666666666664,551.5151515151515,-33.5,581.8181818181819,-31C612.1212121212122,-28.5,624.2424242424242,36.416666666666664,654.5454545454546,41C684.848484848485,45.583333333333336,696.969696969697,-11.291666666666666,727.2727272727274,-9C757.5757575757577,-6.708333333333334,784.848484848485,39.29166666666667,800.0000000000001,52" transform="matrix(1,0,0,1,0,1344)"></path><path d="M10,10C23.06818181818182,11.25,44.507575757575765,26,72.72727272727273,16C100.9469696969697,6,115.15151515151517,-42.166666666666664,145.45454545454547,-38C175.75757575757575,-33.833333333333336,187.87878787878788,35.791666666666664,218.1818181818182,36C248.4848484848485,36.208333333333336,260.6060606060606,-43.458333333333336,290.90909090909093,-37C321.21212121212125,-30.541666666666664,333.33333333333337,69.91666666666667,363.6363636363637,67C393.939393939394,64.08333333333333,406.06060606060606,-43.083333333333336,436.3636363636364,-51C466.6666666666667,-58.916666666666664,478.7878787878788,24.833333333333332,509.0909090909091,29C539.3939393939395,33.166666666666664,551.5151515151515,-33.5,581.8181818181819,-31C612.1212121212122,-28.5,624.2424242424242,36.416666666666664,654.5454545454546,41C684.848484848485,45.583333333333336,696.969696969697,-11.291666666666666,727.2727272727274,-9C757.5757575757577,-6.708333333333334,784.848484848485,39.29166666666667,800.0000000000001,52" transform="matrix(1,0,0,1,0,1260)"></path><path d="M10,10C23.06818181818182,11.25,44.507575757575765,26,72.72727272727273,16C100.9469696969697,6,115.15151515151517,-42.166666666666664,145.45454545454547,-38C175.75757575757575,-33.833333333333336,187.87878787878788,35.791666666666664,218.1818181818182,36C248.4848484848485,36.208333333333336,260.6060606060606,-43.458333333333336,290.90909090909093,-37C321.21212121212125,-30.541666666666664,333.33333333333337,69.91666666666667,363.6363636363637,67C393.939393939394,64.08333333333333,406.06060606060606,-43.083333333333336,436.3636363636364,-51C466.6666666666667,-58.916666666666664,478.7878787878788,24.833333333333332,509.0909090909091,29C539.3939393939395,33.166666666666664,551.5151515151515,-33.5,581.8181818181819,-31C612.1212121212122,-28.5,624.2424242424242,36.416666666666664,654.5454545454546,41C684.848484848485,45.583333333333336,696.969696969697,-11.291666666666666,727.2727272727274,-9C757.5757575757577,-6.708333333333334,784.848484848485,39.29166666666667,800.0000000000001,52" transform="matrix(1,0,0,1,0,1176)"></path><path d="M10,10C23.06818181818182,11.25,44.507575757575765,26,72.72727272727273,16C100.9469696969697,6,115.15151515151517,-42.166666666666664,145.45454545454547,-38C175.75757575757575,-33.833333333333336,187.87878787878788,35.791666666666664,218.1818181818182,36C248.4848484848485,36.208333333333336,260.6060606060606,-43.458333333333336,290.90909090909093,-37C321.21212121212125,-30.541666666666664,333.33333333333337,69.91666666666667,363.6363636363637,67C393.939393939394,64.08333333333333,406.06060606060606,-43.083333333333336,436.3636363636364,-51C466.6666666666667,-58.916666666666664,478.7878787878788,24.833333333333332,509.0909090909091,29C539.3939393939395,33.166666666666664,551.5151515151515,-33.5,581.8181818181819,-31C612.1212121212122,-28.5,624.2424242424242,36.416666666666664,654.5454545454546,41C684.848484848485,45.583333333333336,696.969696969697,-11.291666666666666,727.2727272727274,-9C757.5757575757577,-6.708333333333334,784.848484848485,39.29166666666667,800.0000000000001,52" transform="matrix(1,0,0,1,0,1092)"></path><path d="M10,10C23.06818181818182,11.25,44.507575757575765,26,72.72727272727273,16C100.9469696969697,6,115.15151515151517,-42.166666666666664,145.45454545454547,-38C175.75757575757575,-33.833333333333336,187.87878787878788,35.791666666666664,218.1818181818182,36C248.4848484848485,36.208333333333336,260.6060606060606,-43.458333333333336,290.90909090909093,-37C321.21212121212125,-30.541666666666664,333.33333333333337,69.91666666666667,363.6363636363637,67C393.939393939394,64.08333333333333,406.06060606060606,-43.083333333333336,436.3636363636364,-51C466.6666666666667,-58.916666666666664,478.7878787878788,24.833333333333332,509.0909090909091,29C539.3939393939395,33.166666666666664,551.5151515151515,-33.5,581.8181818181819,-31C612.1212121212122,-28.5,624.2424242424242,36.416666666666664,654.5454545454546,41C684.848484848485,45.583333333333336,696.969696969697,-11.291666666666666,727.2727272727274,-9C757.5757575757577,-6.708333333333334,784.848484848485,39.29166666666667,800.0000000000001,52" transform="matrix(1,0,0,1,0,1008)"></path><path d="M10,10C23.06818181818182,11.25,44.507575757575765,26,72.72727272727273,16C100.9469696969697,6,115.15151515151517,-42.166666666666664,145.45454545454547,-38C175.75757575757575,-33.833333333333336,187.87878787878788,35.791666666666664,218.1818181818182,36C248.4848484848485,36.208333333333336,260.6060606060606,-43.458333333333336,290.90909090909093,-37C321.21212121212125,-30.541666666666664,333.33333333333337,69.91666666666667,363.6363636363637,67C393.939393939394,64.08333333333333,406.06060606060606,-43.083333333333336,436.3636363636364,-51C466.6666666666667,-58.916666666666664,478.7878787878788,24.833333333333332,509.0909090909091,29C539.3939393939395,33.166666666666664,551.5151515151515,-33.5,581.8181818181819,-31C612.1212121212122,-28.5,624.2424242424242,36.416666666666664,654.5454545454546,41C684.848484848485,45.583333333333336,696.969696969697,-11.291666666666666,727.2727272727274,-9C757.5757575757577,-6.708333333333334,784.848484848485,39.29166666666667,800.0000000000001,52" transform="matrix(1,0,0,1,0,924)"></path><path d="M10,10C23.06818181818182,11.25,44.507575757575765,26,72.72727272727273,16C100.9469696969697,6,115.15151515151517,-42.166666666666664,145.45454545454547,-38C175.75757575757575,-33.833333333333336,187.87878787878788,35.791666666666664,218.1818181818182,36C248.4848484848485,36.208333333333336,260.6060606060606,-43.458333333333336,290.90909090909093,-37C321.21212121212125,-30.541666666666664,333.33333333333337,69.91666666666667,363.6363636363637,67C393.939393939394,64.08333333333333,406.06060606060606,-43.083333333333336,436.3636363636364,-51C466.6666666666667,-58.916666666666664,478.7878787878788,24.833333333333332,509.0909090909091,29C539.3939393939395,33.166666666666664,551.5151515151515,-33.5,581.8181818181819,-31C612.1212121212122,-28.5,624.2424242424242,36.416666666666664,654.5454545454546,41C684.848484848485,45.583333333333336,696.969696969697,-11.291666666666666,727.2727272727274,-9C757.5757575757577,-6.708333333333334,784.848484848485,39.29166666666667,800.0000000000001,52" transform="matrix(1,0,0,1,0,840)"></path><path d="M10,10C23.06818181818182,11.25,44.507575757575765,26,72.72727272727273,16C100.9469696969697,6,115.15151515151517,-42.166666666666664,145.45454545454547,-38C175.75757575757575,-33.833333333333336,187.87878787878788,35.791666666666664,218.1818181818182,36C248.4848484848485,36.208333333333336,260.6060606060606,-43.458333333333336,290.90909090909093,-37C321.21212121212125,-30.541666666666664,333.33333333333337,69.91666666666667,363.6363636363637,67C393.939393939394,64.08333333333333,406.06060606060606,-43.083333333333336,436.3636363636364,-51C466.6666666666667,-58.916666666666664,478.7878787878788,24.833333333333332,509.0909090909091,29C539.3939393939395,33.166666666666664,551.5151515151515,-33.5,581.8181818181819,-31C612.1212121212122,-28.5,624.2424242424242,36.416666666666664,654.5454545454546,41C684.848484848485,45.583333333333336,696.969696969697,-11.291666666666666,727.2727272727274,-9C757.5757575757577,-6.708333333333334,784.848484848485,39.29166666666667,800.0000000000001,52" transform="matrix(1,0,0,1,0,756)"></path><path d="M10,10C23.06818181818182,11.25,44.507575757575765,26,72.72727272727273,16C100.9469696969697,6,115.15151515151517,-42.166666666666664,145.45454545454547,-38C175.75757575757575,-33.833333333333336,187.87878787878788,35.791666666666664,218.1818181818182,36C248.4848484848485,36.208333333333336,260.6060606060606,-43.458333333333336,290.90909090909093,-37C321.21212121212125,-30.541666666666664,333.33333333333337,69.91666666666667,363.6363636363637,67C393.939393939394,64.08333333333333,406.06060606060606,-43.083333333333336,436.3636363636364,-51C466.6666666666667,-58.916666666666664,478.7878787878788,24.833333333333332,509.0909090909091,29C539.3939393939395,33.166666666666664,551.5151515151515,-33.5,581.8181818181819,-31C612.1212121212122,-28.5,624.2424242424242,36.416666666666664,654.5454545454546,41C684.848484848485,45.583333333333336,696.969696969697,-11.291666666666666,727.2727272727274,-9C757.5757575757577,-6.708333333333334,784.848484848485,39.29166666666667,800.0000000000001,52" transform="matrix(1,0,0,1,0,672)"></path><path d="M10,10C23.06818181818182,11.25,44.507575757575765,26,72.72727272727273,16C100.9469696969697,6,115.15151515151517,-42.166666666666664,145.45454545454547,-38C175.75757575757575,-33.833333333333336,187.87878787878788,35.791666666666664,218.1818181818182,36C248.4848484848485,36.208333333333336,260.6060606060606,-43.458333333333336,290.90909090909093,-37C321.21212121212125,-30.541666666666664,333.33333333333337,69.91666666666667,363.6363636363637,67C393.939393939394,64.08333333333333,406.06060606060606,-43.083333333333336,436.3636363636364,-51C466.6666666666667,-58.916666666666664,478.7878787878788,24.833333333333332,509.0909090909091,29C539.3939393939395,33.166666666666664,551.5151515151515,-33.5,581.8181818181819,-31C612.1212121212122,-28.5,624.2424242424242,36.416666666666664,654.5454545454546,41C684.848484848485,45.583333333333336,696.969696969697,-11.291666666666666,727.2727272727274,-9C757.5757575757577,-6.708333333333334,784.848484848485,39.29166666666667,800.0000000000001,52" transform="matrix(1,0,0,1,0,588)"></path><path d="M10,10C23.06818181818182,11.25,44.507575757575765,26,72.72727272727273,16C100.9469696969697,6,115.15151515151517,-42.166666666666664,145.45454545454547,-38C175.75757575757575,-33.833333333333336,187.87878787878788,35.791666666666664,218.1818181818182,36C248.4848484848485,36.208333333333336,260.6060606060606,-43.458333333333336,290.90909090909093,-37C321.21212121212125,-30.541666666666664,333.33333333333337,69.91666666666667,363.6363636363637,67C393.939393939394,64.08333333333333,406.06060606060606,-43.083333333333336,436.3636363636364,-51C466.6666666666667,-58.916666666666664,478.7878787878788,24.833333333333332,509.0909090909091,29C539.3939393939395,33.166666666666664,551.5151515151515,-33.5,581.8181818181819,-31C612.1212121212122,-28.5,624.2424242424242,36.416666666666664,654.5454545454546,41C684.848484848485,45.583333333333336,696.969696969697,-11.291666666666666,727.2727272727274,-9C757.5757575757577,-6.708333333333334,784.848484848485,39.29166666666667,800.0000000000001,52" transform="matrix(1,0,0,1,0,504)"></path><path d="M10,10C23.06818181818182,11.25,44.507575757575765,26,72.72727272727273,16C100.9469696969697,6,115.15151515151517,-42.166666666666664,145.45454545454547,-38C175.75757575757575,-33.833333333333336,187.87878787878788,35.791666666666664,218.1818181818182,36C248.4848484848485,36.208333333333336,260.6060606060606,-43.458333333333336,290.90909090909093,-37C321.21212121212125,-30.541666666666664,333.33333333333337,69.91666666666667,363.6363636363637,67C393.939393939394,64.08333333333333,406.06060606060606,-43.083333333333336,436.3636363636364,-51C466.6666666666667,-58.916666666666664,478.7878787878788,24.833333333333332,509.0909090909091,29C539.3939393939395,33.166666666666664,551.5151515151515,-33.5,581.8181818181819,-31C612.1212121212122,-28.5,624.2424242424242,36.416666666666664,654.5454545454546,41C684.848484848485,45.583333333333336,696.969696969697,-11.291666666666666,727.2727272727274,-9C757.5757575757577,-6.708333333333334,784.848484848485,39.29166666666667,800.0000000000001,52" transform="matrix(1,0,0,1,0,420)"></path><path d="M10,10C23.06818181818182,11.25,44.507575757575765,26,72.72727272727273,16C100.9469696969697,6,115.15151515151517,-42.166666666666664,145.45454545454547,-38C175.75757575757575,-33.833333333333336,187.87878787878788,35.791666666666664,218.1818181818182,36C248.4848484848485,36.208333333333336,260.6060606060606,-43.458333333333336,290.90909090909093,-37C321.21212121212125,-30.541666666666664,333.33333333333337,69.91666666666667,363.6363636363637,67C393.939393939394,64.08333333333333,406.06060606060606,-43.083333333333336,436.3636363636364,-51C466.6666666666667,-58.916666666666664,478.7878787878788,24.833333333333332,509.0909090909091,29C539.3939393939395,33.166666666666664,551.5151515151515,-33.5,581.8181818181819,-31C612.1212121212122,-28.5,624.2424242424242,36.416666666666664,654.5454545454546,41C684.848484848485,45.583333333333336,696.969696969697,-11.291666666666666,727.2727272727274,-9C757.5757575757577,-6.708333333333334,784.848484848485,39.29166666666667,800.0000000000001,52" transform="matrix(1,0,0,1,0,336)"></path><path d="M10,10C23.06818181818182,11.25,44.507575757575765,26,72.72727272727273,16C100.9469696969697,6,115.15151515151517,-42.166666666666664,145.45454545454547,-38C175.75757575757575,-33.833333333333336,187.87878787878788,35.791666666666664,218.1818181818182,36C248.4848484848485,36.208333333333336,260.6060606060606,-43.458333333333336,290.90909090909093,-37C321.21212121212125,-30.541666666666664,333.33333333333337,69.91666666666667,363.6363636363637,67C393.939393939394,64.08333333333333,406.06060606060606,-43.083333333333336,436.3636363636364,-51C466.6666666666667,-58.916666666666664,478.7878787878788,24.833333333333332,509.0909090909091,29C539.3939393939395,33.166666666666664,551.5151515151515,-33.5,581.8181818181819,-31C612.1212121212122,-28.5,624.2424242424242,36.416666666666664,654.5454545454546,41C684.848484848485,45.583333333333336,696.969696969697,-11.291666666666666,727.2727272727274,-9C757.5757575757577,-6.708333333333334,784.848484848485,39.29166666666667,800.0000000000001,52" transform="matrix(1,0,0,1,0,252)"></path><path d="M10,10C23.06818181818182,11.25,44.507575757575765,26,72.72727272727273,16C100.9469696969697,6,115.15151515151517,-42.166666666666664,145.45454545454547,-38C175.75757575757575,-33.833333333333336,187.87878787878788,35.791666666666664,218.1818181818182,36C248.4848484848485,36.208333333333336,260.6060606060606,-43.458333333333336,290.90909090909093,-37C321.21212121212125,-30.541666666666664,333.33333333333337,69.91666666666667,363.6363636363637,67C393.939393939394,64.08333333333333,406.06060606060606,-43.083333333333336,436.3636363636364,-51C466.6666666666667,-58.916666666666664,478.7878787878788,24.833333333333332,509.0909090909091,29C539.3939393939395,33.166666666666664,551.5151515151515,-33.5,581.8181818181819,-31C612.1212121212122,-28.5,624.2424242424242,36.416666666666664,654.5454545454546,41C684.848484848485,45.583333333333336,696.969696969697,-11.291666666666666,727.2727272727274,-9C757.5757575757577,-6.708333333333334,784.848484848485,39.29166666666667,800.0000000000001,52" transform="matrix(1,0,0,1,0,168)"></path><path d="M10,10C23.06818181818182,11.25,44.507575757575765,26,72.72727272727273,16C100.9469696969697,6,115.15151515151517,-42.166666666666664,145.45454545454547,-38C175.75757575757575,-33.833333333333336,187.87878787878788,35.791666666666664,218.1818181818182,36C248.4848484848485,36.208333333333336,260.6060606060606,-43.458333333333336,290.90909090909093,-37C321.21212121212125,-30.541666666666664,333.33333333333337,69.91666666666667,363.6363636363637,67C393.939393939394,64.08333333333333,406.06060606060606,-43.083333333333336,436.3636363636364,-51C466.6666666666667,-58.916666666666664,478.7878787878788,24.833333333333332,509.0909090909091,29C539.3939393939395,33.166666666666664,551.5151515151515,-33.5,581.8181818181819,-31C612.1212121212122,-28.5,624.2424242424242,36.416666666666664,654.5454545454546,41C684.848484848485,45.583333333333336,696.969696969697,-11.291666666666666,727.2727272727274,-9C757.5757575757577,-6.708333333333334,784.848484848485,39.29166666666667,800.0000000000001,52" transform="matrix(1,0,0,1,0,84)"></path></g></svg>