<svg version="1.2" xmlns="http://www.w3.org/2000/svg" viewBox="0 0 789 198" width="789" height="198">
	<title>Novo Projeto</title>
	<style>
		.s0 { fill: #000000 } 
	</style>
	<path id="opensheets" class="s0" aria-label="opensheets"  d="m74.1 99.5q0-17.2 8.9-28.4 9-11.2 26.2-11.2 17.2 0 26.1 11.2 9 11.2 9 28.4 0 17.3-9 28.5-8.9 11.2-26.1 11.2-17.2 0-26.2-11.2-8.9-11.2-8.9-28.5zm13.4 0q0 15.4 5.9 22.8 6 7.4 15.8 7.4 9.8 0 15.8-7.4 5.9-7.4 5.9-22.8 0-15.3-5.9-22.7-6-7.4-15.8-7.4-9.8 0-15.8 7.4-5.9 7.4-5.9 22.7zm66 67.8h-6.2q-3.2 0-3.2-3.3v-99.6q0-3.3 3.2-3.3h6.1q2.5 0 2.8 3.3l0.4 5.9h0.1q4-4.9 8.9-7.7 5-2.7 13.2-2.7 14.4 0 21.9 12 7.4 11.9 7.4 27.6 0 15.8-7.4 27.8-7.5 11.9-21.9 11.9-8.2 0-13.2-2.7-4.9-2.8-8.9-7.7h-0.1q0.1 2.2 0.1 4.5v30.7q0 3.3-3.2 3.3zm3.2-76.2v16.9q0 11 5.1 16.4 5.2 5.3 12.9 5.3 11 0 15.5-8.3 4.6-8.4 4.6-21.9 0-13.4-4.6-21.8-4.5-8.3-15.5-8.3-7.7 0-12.9 5.4-5.1 5.3-5.1 16.3zm47.1 8.4q0-18.1 8.9-28.9 8.9-10.7 25.5-10.7 13.8 0 22.8 9.8 9.1 9.9 9.1 31.5 0 3.3-2.9 3.3h-50q1.2 14.1 7.4 19.7 6.3 5.5 14.2 5.5 8.3 0 12.8-2.9 4.4-2.9 6.5-5.6 2.3-3.1 4.4-1.2l4.3 3.7q1.6 1.5 0 4-1.4 2.2-7.9 6.9-6.3 4.6-20.1 4.6-18 0-26.5-10.7-8.5-10.8-8.5-29zm13.1-4.6h40.5q-0.2-10.2-5.1-17.9-4.9-7.8-14.4-7.8-8.3 0-14.1 5.7-5.8 5.7-6.9 20zm62.7 43.1h-6.1q-3.3 0-3.3-3.3v-70.3q0-3.3 3.3-3.3h6q3.2 0 3.2 3.3v5.9h0.3q4.7-5.3 10-7.9 5.4-2.5 13.5-2.5 13 0 18.7 7.5 5.7 7.5 5.7 20.5v46.8q0 3.3-3.2 3.3h-6.2q-3.2 0-3.2-3.3v-43.3q0-14.3-4.7-18.1-4.6-3.9-11.8-3.9-9.3 0-14.1 5.7-4.8 5.6-4.8 19.4v40.2q0 3.3-3.3 3.3zm55.3-7.8q-4.4-3.5-2.1-7l5.5-8.5q2.7-4.2 7.9-0.4 4.1 2.8 10.5 5.9 6.6 3 13.7 3 5.1 0 9.7-1.2 4.7-1.1 7.1-4.5 2.5-3.4 2.5-8 0-3.3-1.1-5.8-1.1-2.5-3.5-4.1-2.5-1.6-5-2.7-4.6-1.9-11.5-3.7-6.8-1.9-13.5-4.6-5.9-2.3-10.9-6.4-4.9-4.1-7.6-9.2-2.8-5.2-2.8-13.7 0-10.2 6.5-17.5 6.4-7.2 14.8-9.3 8.4-2 17-2 8.5 0 17.4 2.6 9.1 2.7 13.7 6.6 4.5 3.9 2.2 7l-5.8 8q-3 4.1-7.9 0.7-3.2-2.2-8.7-4.9-5.5-2.7-11.4-2.7-4.3 0-7.8 0.7-3.6 0.7-6.3 3.5-2.7 2.8-2.7 6.9 0 4 2 6.4 2 2.5 4.4 3.7 2.5 1.2 5 2 7.8 2.5 13.9 4.5 6.1 1.9 11.2 4.3 7.2 3.3 11 6.6 3.8 3.3 6.2 9 2.6 5.7 2.6 13.6 0 11.7-7.4 19.4-7.3 7.6-16.3 9.9-8.9 2.2-17.3 2.2-12.5 0-20.3-2.4-7.9-2.5-14.9-7.9zm92.5 7.8h-11.5q-4.3 0-4.3-4.4v-99.3q0-4.4 4.3-4.4h11.5q4.3 0 4.3 4.4v29.6q0 2.9-0.2 5.8h0.4q3.3-5.7 8.4-7.9 5.1-2.2 12.3-2.2 11.2 0 18.5 7.2 7.3 7.2 7.3 26.2v40.6q0 4.4-4.3 4.4h-11.5q-4.3 0-4.3-4.4v-35.3q0-16-2.2-20.1-2.1-4.2-9.2-4.2-7.6 0-11.4 6-3.8 5.9-3.8 24.7v28.9q0 4.4-4.3 4.4zm49.9-38.5q0-18.5 9-29.2 9.1-10.7 25.7-10.7 19.2 0 28.6 10.1 9.3 10.1 9.3 32.6 0 4.4-4 4.4h-47.4q1.1 12.1 5.9 15.3 4.7 3.1 11 3.1 5.9 0 9.1-1.6 3.1-1.6 5.3-4.4 2.4-3.2 6-1l7.2 4.4q4.2 2.7 1.2 6.3-4.4 5.4-10.2 8-5.9 2.7-18.6 2.7-20.6 0-29.4-10.7-8.7-10.7-8.7-29.3zm21.3-7.5h31.2q0-7.9-3.9-12.9-3.9-5-12.3-5-6.8 0-10.7 4.8-4 4.8-4.3 13.1zm46.4 7.5q0-18.5 9.1-29.2 9.1-10.7 25.7-10.7 19.2 0 28.5 10.1 9.4 10.1 9.4 32.6 0 4.4-4.1 4.4h-47.3q1.1 12.1 5.9 15.3 4.7 3.1 10.9 3.1 6 0 9.2-1.6 3.1-1.6 5.3-4.4 2.4-3.2 6-1l7.2 4.4q4.2 2.7 1.2 6.3-4.4 5.4-10.3 8-5.9 2.7-18.6 2.7-20.6 0-29.3-10.7-8.8-10.7-8.8-29.3zm21.3-7.5h31.3q0-7.9-3.9-12.9-3.9-5-12.4-5-6.7 0-10.7 4.8-3.9 4.8-4.3 13.1zm52.9-16.3h-4.9q-4.2 0-4.2-3.6v-7.3q0-3.7 4.2-3.7h4.9v-2.6q0-3.3 1.5-6l5.5-9.9q1.6-2.7 3.7-2.7h5.1q4.3 0 4.3 4.3v16.9h11.6q4.2 0 4.2 3.7v7.3q0 3.6-4.2 3.6h-11.6v36.4q0 7.4 1 10.7 1.1 3.3 5.4 3.3 2.3 0 5.1-0.8 2.8-0.8 4.3-1.5 2.5-1.2 3.3 1.7l2.2 8.3q0.6 2.5-1.9 3.7-2.3 1.1-6.5 2-4.1 0.9-8.3 0.9-10.2 0-17.5-4.3-7.2-4.3-7.2-17.8zm35.3 57.1q-3.5-2.5-1.9-5.5l3.6-6.8q2-3.6 6.1-0.9 4 2.8 9.6 4.1 5.6 1.4 10.2 1.4 3.2 0 6-0.7 2.8-0.7 4.7-2.6 2-1.9 2-5.5 0-2.2-1.2-3.8-1.1-1.5-2.9-2.3-1.8-0.8-3.8-1.3-2.7-0.7-7.7-2.2-5-1.6-9.6-3.6-3.8-1.7-7.4-4.7-3.6-3.1-5.3-6.8-1.7-3.7-1.7-9.2 0-7.4 4.2-13 4.2-5.6 10.9-7.7 6.7-2.1 16.6-2.1 6.8 0 13.2 2 6.4 1.9 9.1 3.7 4.3 2.8 2.1 5.9l-4.3 6.5q-2 3-6.5 0.5-3.4-1.9-6.7-3.1-3.2-1.2-7.2-1.2-2.7 0-5.3 0.6-2.5 0.6-4.3 2.2-1.7 1.6-1.7 4.3 0 2.8 1.6 4.4 1.6 1.5 3.7 2.2 2.2 0.8 4.1 1.4 4 1.3 8.1 2.6 4.1 1.2 8.4 2.8 3.6 1.5 7.1 4.2 3.4 2.7 5 6.9 1.6 4.2 1.6 9.5 0 7.1-4.2 13.2-4.2 6.1-11 8.7-6.8 2.5-15.8 2.5-10.2 0-17.3-1.4-7.1-1.5-12.1-5.2z"/>
</svg>