<?xml version="1.0" standalone="no"?>
<!DOCTYPE svg PUBLIC "-//W3C//DTD SVG 20010904//EN"
 "http://www.w3.org/TR/2001/REC-SVG-20010904/DTD/svg10.dtd">
<svg version="1.0" xmlns="http://www.w3.org/2000/svg"
 width="2000.000000pt" height="1500.000000pt" viewBox="0 0 2000.000000 1500.000000"
 preserveAspectRatio="xMidYMid meet">

<g transform="translate(0.000000,1500.000000) scale(0.100000,-0.100000)"
fill="none" stroke="none">
<path d="M0 7500 l0 -7500 10000 0 10000 0 0 7500 0 7500 -10000 0 -10000 0 0
-7500z m11174 1459 c10 -14 13 -37 10 -73 -39 -441 -65 -720 -70 -727 -8 -14
3 -11 57 16 308 157 614 183 759 67 86 -70 131 -162 151 -308 13 -101 11 -130
-37 -587 -19 -181 -34 -375 -34 -433 0 -90 -2 -105 -18 -113 -34 -18 -445
-131 -477 -131 -18 0 -38 7 -45 15 -13 16 -12 21 50 630 44 431 39 531 -32
590 -30 25 -38 27 -99 23 -116 -9 -234 -76 -285 -164 -23 -39 -28 -67 -44
-227 -31 -316 -60 -621 -63 -662 l-2 -40 -235 -82 c-244 -86 -301 -96 -324
-61 -12 20 149 2137 163 2151 5 5 110 33 234 63 123 29 235 58 248 63 41 17
77 13 93 -10z m4796 -268 c0 -37 -33 -367 -45 -458 l-6 -43 193 0 c198 0 218
-4 218 -39 0 -9 -29 -81 -63 -161 -47 -109 -69 -148 -87 -157 -16 -8 -71 -13
-157 -13 -129 0 -133 -1 -138 -22 -11 -53 -45 -372 -51 -478 -12 -240 47 -285
277 -211 74 24 96 28 105 18 19 -20 69 -296 58 -315 -11 -17 -151 -67 -304
-108 -116 -31 -273 -42 -362 -24 -215 42 -312 187 -311 465 0 101 29 463 49
627 l6 47 -135 3 -135 3 -4 -75 c-5 -96 -36 -165 -111 -246 -98 -106 -243
-184 -408 -220 -80 -17 -317 -24 -358 -10 -23 8 -24 7 -17 -25 11 -60 56 -111
130 -149 68 -35 70 -35 195 -35 118 1 133 3 233 37 58 20 134 51 167 67 101
51 96 58 94 -142 -1 -94 -2 -178 -2 -185 -1 -20 -152 -87 -272 -120 -155 -44
-243 -56 -372 -50 -352 17 -640 247 -718 574 -30 125 -23 318 16 449 45 155
105 255 220 371 83 83 115 108 190 146 198 101 407 130 585 81 178 -49 340
-196 399 -363 l18 -51 82 129 c116 185 113 182 170 182 l47 0 22 195 c12 108
26 204 31 214 8 14 39 23 133 40 68 12 182 37 253 55 173 44 165 44 165 -3z
m-10870 -338 c0 -5 -7 -48 -15 -98 -8 -49 -15 -94 -15 -98 0 -5 19 4 43 18
170 106 387 160 543 135 184 -29 322 -153 389 -349 37 -111 48 -205 42 -364
-15 -393 -199 -727 -479 -868 -78 -39 -166 -59 -269 -59 -119 0 -228 36 -341
113 l-37 26 -5 -42 c-11 -85 -46 -493 -46 -539 0 -45 -1 -47 -42 -62 -41 -15
-414 -113 -470 -123 -42 -8 -69 26 -62 79 2 24 43 501 89 1061 46 559 89 1025
94 1035 8 15 49 27 193 56 101 20 221 47 268 60 93 26 120 30 120 19z m3207
-50 c-4 -32 -9 -80 -13 -106 l-7 -49 79 40 c174 87 326 125 504 125 94 0 125
-4 171 -22 106 -41 169 -118 205 -251 29 -107 23 -302 -19 -683 -20 -180 -37
-377 -37 -437 0 -94 -2 -111 -17 -119 -35 -18 -447 -131 -478 -131 -58 0 -60
8 -36 232 45 427 71 727 71 821 0 110 -13 152 -56 186 -26 20 -37 23 -99 18
-38 -2 -96 -14 -127 -26 -71 -27 -160 -106 -182 -160 -9 -24 -26 -145 -41
-303 -14 -145 -34 -339 -43 -433 l-17 -170 -235 -82 c-252 -88 -314 -100 -328
-63 -4 12 7 188 25 393 91 1025 102 1130 115 1143 7 7 103 31 213 53 110 22
229 49 265 60 96 29 94 30 87 -36z m-4700 26 c247 -33 438 -121 565 -259 105
-113 158 -237 178 -417 42 -388 -139 -736 -465 -893 -142 -69 -224 -85 -425
-85 -204 0 -255 10 -395 79 -196 97 -328 261 -386 481 -30 113 -30 307 0 420
79 299 301 519 598 590 68 17 72 19 67 41 -12 48 -2 54 95 54 49 0 125 -5 168
-11z m3455 -19 c90 -13 147 -34 230 -83 231 -138 342 -430 238 -625 -38 -73
-140 -174 -222 -220 -156 -89 -388 -136 -563 -114 -38 5 -72 8 -74 6 -2 -2 1
-21 7 -42 16 -52 73 -109 141 -141 51 -24 66 -26 181 -25 139 1 211 18 381 95
48 22 93 39 100 39 11 0 14 -34 13 -182 l-1 -183 -59 -32 c-74 -40 -217 -87
-348 -114 -150 -31 -316 -24 -446 20 -270 91 -464 302 -516 560 -22 110 -15
292 15 406 100 378 424 631 821 644 19 0 65 -4 102 -9z m3058 -16 c67 -19 137
-54 171 -86 26 -24 27 -27 34 -206 4 -99 4 -185 1 -191 -12 -19 -42 -12 -67
15 -38 42 -143 113 -189 129 -50 17 -137 20 -177 4 -55 -21 -73 -47 -73 -109
0 -34 6 -64 16 -78 8 -12 90 -72 182 -134 186 -125 263 -197 307 -284 28 -55
30 -66 30 -174 0 -109 -2 -119 -32 -183 -47 -99 -142 -191 -253 -245 -119 -58
-184 -74 -335 -79 -140 -5 -220 7 -315 48 l-48 21 -6 86 c-18 280 -19 322 -2
328 10 4 36 -9 69 -35 89 -68 139 -86 242 -86 71 0 97 4 122 19 43 26 57 59
42 103 -9 28 -38 53 -162 141 -84 59 -174 128 -200 154 -66 66 -105 152 -118
264 -23 182 12 288 135 409 164 162 411 229 626 169z m3040 4 c93 -22 191 -79
271 -158 115 -113 169 -235 169 -380 0 -68 -4 -86 -35 -147 -39 -78 -122 -167
-207 -220 -66 -42 -186 -89 -281 -109 -76 -17 -315 -24 -354 -10 -69 23 22
-130 102 -171 141 -74 337 -54 586 58 48 22 94 39 103 39 15 0 17 -17 13 -182
l-5 -182 -33 -22 c-52 -32 -155 -71 -285 -106 -110 -30 -131 -32 -279 -32
-155 -1 -163 0 -255 32 -329 114 -530 386 -530 717 0 461 307 826 745 884 78
11 206 6 275 -11z m3910 0 c59 -14 163 -64 189 -92 18 -20 22 -41 30 -201 5
-99 6 -185 4 -192 -10 -26 -47 -12 -102 40 -82 75 -149 109 -231 115 -117 8
-180 -30 -180 -110 0 -75 19 -95 192 -213 89 -60 187 -133 218 -162 105 -97
152 -230 130 -370 -29 -186 -166 -329 -387 -403 -169 -56 -388 -54 -538 6
l-63 25 -7 187 c-4 103 -8 196 -8 207 -3 31 26 28 69 -6 129 -104 324 -130
401 -53 21 21 24 32 20 61 -3 19 -12 42 -19 50 -7 8 -78 62 -158 118 -170 120
-229 180 -273 273 -31 66 -32 70 -32 212 l0 145 35 65 c85 158 276 283 475
310 66 9 166 4 235 -12z"/>
<path d="M14373 7911 c-54 -25 -112 -86 -150 -158 -33 -62 -60 -140 -51 -148
3 -3 48 4 101 15 351 76 478 200 293 286 -63 29 -135 31 -193 5z"/>
<path d="M5256 7915 c-56 -20 -142 -82 -182 -130 l-34 -42 -15 -204 c-8 -112
-17 -227 -20 -256 -8 -65 14 -110 83 -175 140 -131 325 -56 407 165 83 225 68
491 -34 600 -53 57 -122 72 -205 42z"/>
<path d="M3405 7903 c-69 -36 -120 -104 -158 -210 -73 -202 -48 -433 59 -552
61 -68 112 -91 200 -91 146 1 241 90 293 278 71 256 7 477 -161 561 -51 26
-73 31 -132 31 -45 -1 -82 -7 -101 -17z"/>
<path d="M6864 7911 c-59 -27 -120 -95 -159 -176 -35 -73 -52 -135 -38 -135
23 1 196 43 253 61 199 66 264 140 186 213 -59 56 -164 72 -242 37z"/>
<path d="M12895 7911 c-44 -20 -110 -86 -142 -141 -26 -43 -68 -159 -61 -166
9 -8 197 36 286 68 135 47 192 92 192 149 0 30 -44 73 -97 96 -46 19 -131 16
-178 -6z"/>
</g>
</svg>
