<svg xmlns="http://www.w3.org/2000/svg" id="Camada_1" data-name="Camada 1" viewBox="0 0 236 28" width="780" height="500">
  <defs>
    <style>
      .cls-1 {
        fill: #4d4898;
        stroke-width: 0px;
      }
    </style>
  </defs>
  <path class="cls-1" d="m103.89,4.2v19.61c2.95-1.96,4.59-5,4.59-9.11v-1.38c0-4.12-1.64-7.15-4.59-9.11m-7.4,10.67c0,4.06-3.86,6.04-9.76,6.04s-9.76-1.99-9.76-6.04v-1.74c0-4.06,3.86-6.04,9.76-6.04s9.76,1.99,9.76,6.04v1.74Zm-9.76-13.35c-9.63,0-15.61,3.93-15.61,11.79v1.38c0,7.86,5.98,11.79,15.61,11.79s15.61-3.93,15.61-11.79v-1.38c0-7.86-5.98-11.79-15.61-11.79m23.3,21.04c1.97-1.92,3.05-4.54,3.05-7.87v-1.38c0-3.33-1.08-5.95-3.05-7.87v17.12Zm22.81-20.56c-4.86,0-9.09,2.45-11.29,5.56V2.62h-6.19v22.84h6.19v-14.95c2.12-1.62,6.44-2.78,9.51-2.78,4.69,0,6.31,1.54,6.31,6.52v11.21h6.19v-12.46c0-6.73-3.9-11-10.71-11M15.65,21.97L7.14,2.62H0l10.59,22.84h10.13L31.31,2.62h-7.14l-8.51,19.35Zm48.85-8.66v1.38c0,4.33,1.82,7.47,5.07,9.41V3.89c-3.25,1.94-5.07,5.08-5.07,9.41m-8.91,4.26c-2.24,1.41-5.6,2.7-8.68,2.7-4.69,0-6.31-1.54-6.31-6.52V2.62h-6.19v12.37c0,6.73,3.9,11,10.55,11,4.48,0,8.47-2.74,10.63-5.56v5.02h6.19V2.62h-6.19v14.95Z"></path>
  <g>
    <path class="cls-1" d="m160.04,5.85c2.83,0,4.79,1.91,5.38,5.23l.06.32h4.83l-.06-.44c-.77-5.8-4.58-9.27-10.21-9.27-6.82,0-10.89,4.52-10.89,12.09s4.07,12.09,10.89,12.09c5.63,0,9.44-3.5,10.21-9.36l.06-.44h-4.83l-.06.32c-.59,3.38-2.55,5.32-5.38,5.32-3.58,0-5.71-2.97-5.71-7.93s2.14-7.93,5.71-7.93Z"></path>
    <path class="cls-1" d="m177.75,2l-7.33,23.57h5.07l1.57-5.51h9.15l1.57,5.51h5.34l-7.29-23.57h-8.09Zm.49,13.99l3.43-11.94,3.4,11.94h-6.83Z"></path>
    <path class="cls-1" d="m207,16.02c3.91-.77,6.17-3.32,6.17-7.13,0-4.31-3.35-6.89-8.95-6.89h-9.23v23.57h5.02v-9.24h3.63l4.96,9.24h5.64l-3.75-6.61c-.77-1.37-2-2.39-3.5-2.94Zm-2.57-3.58h-4.42v-6.38h4.42c2.26,0,3.56,1.14,3.56,3.13s-1.3,3.25-3.56,3.25Z"></path>
    <path class="cls-1" d="m224.18,2h-7.78v23.57h7.78c7.4,0,11.82-4.41,11.82-11.79s-4.42-11.79-11.82-11.79Zm.25,19.5h-3V6.07h3c4.06,0,6.39,2.81,6.39,7.72s-2.33,7.72-6.39,7.72Z"></path>
  </g>
</svg>